# xmcd
#
# Track frame offsets:
#	180
#	14319
#	26614
#	40623
#	52497
#	66307
#	79752
#	91342
#	109750
#	123689
#	138833
#	152805
#	164199
#	177856
#	190531
#	202313
#	216795
#	229431
#	242437
#	255959
#	269804
#	281341
#	295968
#
# Disc length: 4181 seconds
#
# Revision: 1
# Processed by: cddbd v1.5.2PL0 Copyright (c) Steve Scherf et al.
# Submitted via: audiograbber 1.83.01
#
DISCID=5b105317
DTITLE=Various Artist - Blues goes on CD  3
DYEAR=1900
DGENRE=Blues
TTITLE0=Bessie Smith - Keeps On A Rainin´ (Papa, He Can´t Make No.Time)
TTITLE1=Roosevelt Sykes - 15C A Day
TTITLE2=Henry Thomas - Red River Blues
TTITLE3=Big Joe Turner - Goin´ Away Blues
TTITLE4=Mary Johnson - Delmar Avenue
TTITLE5=Big Bill Broonzy - At The Break Of Day
TTITLE6=Muddy Waters - Gypsy Woman
TTITLE7=Lemuel Fowler - Down And Out Blues
TTITLE8=Leroy Carr - Midnight Hour Blues
TTITLE9=Muddy Waters - Honey Bee
TTITLE10=Pee Wee Crayton - Blues After Hours
TTITLE11=Champion Jack Dupree - Chain Gang Blues
TTITLE12=John Lee Hooker - Black Cat Blues
TTITLE13=Big Joe Turner - Still In The Dark
TTITLE14=Little Brother Montgomery - Crescent City Blues
TTITLE15=John Lee Hooker - Forgive Me
TTITLE16=Champion Jack Dupree - Warehouse Man Blues
TTITLE17=Leadbelly - Good Morning Blues 
TTITLE18=Lonnie Johnson - Backwater Blues
TTITLE19=Big Joe Williams - I Know You Gonna Miss Me
TTITLE20=Blind Boy Fuller - Bye Bye Baby Blues
TTITLE21=Leadbelly - Easy Rider 
TTITLE22=John Lee Hooker - Bottle Of Wine
EXTD=
EXTT0=
EXTT1=
EXTT2=
EXTT3=
EXTT4=
EXTT5=
EXTT6=
EXTT7=
EXTT8=
EXTT9=
EXTT10=
EXTT11=
EXTT12=
EXTT13=
EXTT14=
EXTT15=
EXTT16=
EXTT17=
EXTT18=
EXTT19=
EXTT20=
EXTT21=
EXTT22=
PLAYORDER=
